{
    "asset" : {
        "generator" : "Khronos glTF Blender I/O v1.8.19",
        "version" : "2.0"
    },
    "scene" : 0,
    "scenes" : [
        {
            "name" : "Scene",
            "nodes" : [
                0
            ]
        }
    ],
    "nodes" : [
        {
            "mesh" : 0,
            "name" : "fence"
        }
    ],
    "meshes" : [
        {
            "name" : "fence",
            "primitives" : [
                {
                    "attributes" : {
                        "POSITION" : 0,
                        "NORMAL" : 1,
                        "TEXCOORD_0" : 2
                    },
                    "indices" : 3
                }
            ]
        }
    ],
    "accessors" : [
        {
            "bufferView" : 0,
            "componentType" : 5126,
            "count" : 170,
            "max" : [
                0.13227663934230804,
                0.8555839657783508,
                0.8650733232498169
            ],
            "min" : [
                -0.13227663934230804,
                0.0002570084179751575,
                -0.8565813302993774
            ],
            "type" : "VEC3"
        },
        {
            "bufferView" : 1,
            "componentType" : 5126,
            "count" : 170,
            "type" : "VEC3"
        },
        {
            "bufferView" : 2,
            "componentType" : 5126,
            "count" : 170,
            "type" : "VEC2"
        },
        {
            "bufferView" : 3,
            "componentType" : 5123,
            "count" : 540,
            "type" : "SCALAR"
        }
    ],
    "bufferViews" : [
        {
            "buffer" : 0,
            "byteLength" : 2040,
            "byteOffset" : 0
        },
        {
            "buffer" : 0,
            "byteLength" : 2040,
            "byteOffset" : 2040
        },
        {
            "buffer" : 0,
            "byteLength" : 1360,
            "byteOffset" : 4080
        },
        {
            "buffer" : 0,
            "byteLength" : 1080,
            "byteOffset" : 5440
        }
    ],
    "buffers" : [
        {
            "byteLength" : 6520,
            "uri" : "fence.bin"
        }
    ]
}
