{
    "asset" : {
        "generator" : "Khronos glTF Blender I/O v1.8.19",
        "version" : "2.0"
    },
    "scene" : 0,
    "scenes" : [
        {
            "name" : "Scene",
            "nodes" : [
                0
            ]
        }
    ],
    "nodes" : [
        {
            "mesh" : 0,
            "name" : "Grass"
        }
    ],
    "meshes" : [
        {
            "name" : "Grass",
            "primitives" : [
                {
                    "attributes" : {
                        "POSITION" : 0,
                        "NORMAL" : 1,
                        "TEXCOORD_0" : 2
                    },
                    "indices" : 3
                }
            ]
        }
    ],
    "accessors" : [
        {
            "bufferView" : 0,
            "componentType" : 5126,
            "count" : 249,
            "max" : [
                15,
                0,
                15
            ],
            "min" : [
                -15,
                0,
                -15
            ],
            "type" : "VEC3"
        },
        {
            "bufferView" : 1,
            "componentType" : 5126,
            "count" : 249,
            "type" : "VEC3"
        },
        {
            "bufferView" : 2,
            "componentType" : 5126,
            "count" : 249,
            "type" : "VEC2"
        },
        {
            "bufferView" : 3,
            "componentType" : 5123,
            "count" : 384,
            "type" : "SCALAR"
        }
    ],
    "bufferViews" : [
        {
            "buffer" : 0,
            "byteLength" : 2988,
            "byteOffset" : 0
        },
        {
            "buffer" : 0,
            "byteLength" : 2988,
            "byteOffset" : 2988
        },
        {
            "buffer" : 0,
            "byteLength" : 1992,
            "byteOffset" : 5976
        },
        {
            "buffer" : 0,
            "byteLength" : 768,
            "byteOffset" : 7968
        }
    ],
    "buffers" : [
        {
            "byteLength" : 8736,
            "uri" : "graass.bin"
        }
    ]
}
